<svg width="1600" height="980" viewBox="0 0 1600 980" fill="none" xmlns="http://www.w3.org/2000/svg">
  <defs>
    <linearGradient id="dw-card" x1="420" y1="250" x2="1060" y2="760" gradientUnits="userSpaceOnUse">
      <stop offset="0%" stop-color="#FFFFFF"/>
      <stop offset="100%" stop-color="#F3F8FD"/>
    </linearGradient>
    <linearGradient id="dw-navy" x1="0" y1="0" x2="1" y2="1">
      <stop offset="0%" stop-color="#0C1829"/>
      <stop offset="100%" stop-color="#233B61"/>
    </linearGradient>
    <linearGradient id="dw-teal" x1="0" y1="0" x2="1" y2="1">
      <stop offset="0%" stop-color="#46E3B9"/>
      <stop offset="100%" stop-color="#149F82"/>
    </linearGradient>
    <linearGradient id="dw-blue" x1="0" y1="0" x2="1" y2="1">
      <stop offset="0%" stop-color="#7CA8FF"/>
      <stop offset="100%" stop-color="#4B6FDC"/>
    </linearGradient>
    <linearGradient id="dw-pink" x1="0" y1="0" x2="1" y2="1">
      <stop offset="0%" stop-color="#FFB3C7"/>
      <stop offset="100%" stop-color="#E15D83"/>
    </linearGradient>
    <linearGradient id="dw-gold" x1="0" y1="0" x2="1" y2="1">
      <stop offset="0%" stop-color="#FFE085"/>
      <stop offset="100%" stop-color="#F1AD3F"/>
    </linearGradient>
    <filter id="dw-shadow" x="138" y="104" width="1324" height="820" filterUnits="userSpaceOnUse" color-interpolation-filters="sRGB">
      <feFlood flood-opacity="0" result="BackgroundImageFix"/>
      <feColorMatrix in="SourceAlpha" type="matrix" values="0 0 0 0 0 0 0 0 0 0 0 0 0 0 0 0 0 0 127 0" result="hardAlpha"/>
      <feOffset dy="24"/>
      <feGaussianBlur stdDeviation="36"/>
      <feColorMatrix type="matrix" values="0 0 0 0 0.0470588 0 0 0 0 0.0941176 0 0 0 0 0.160784 0 0 0 0.16 0"/>
      <feBlend mode="normal" in2="BackgroundImageFix" result="effect1_dropShadow_0_1"/>
      <feBlend mode="normal" in="SourceGraphic" in2="effect1_dropShadow_0_1" result="shape"/>
    </filter>
    <filter id="dw-soft" x="0" y="0" width="1600" height="980" filterUnits="userSpaceOnUse" color-interpolation-filters="sRGB">
      <feGaussianBlur stdDeviation="64"/>
    </filter>
  </defs>

  <g opacity="0.55" filter="url(#dw-soft)">
    <circle cx="292" cy="222" r="120" fill="#89E7CE"/>
    <circle cx="1266" cy="232" r="132" fill="#D9E5FF"/>
    <circle cx="1168" cy="796" r="136" fill="#F7D5E1"/>
  </g>

  <g filter="url(#dw-shadow)">
    <rect x="402" y="242" width="738" height="428" rx="36" fill="url(#dw-card)" stroke="#DCE5F1" stroke-width="3"/>
    <rect x="402" y="242" width="738" height="76" rx="36" fill="url(#dw-navy)"/>
    <circle cx="454" cy="280" r="7" fill="#FF7D73"/>
    <circle cx="480" cy="280" r="7" fill="#FFC857"/>
    <circle cx="506" cy="280" r="7" fill="#46E3B9"/>
    <rect x="552" y="266" width="170" height="26" rx="13" fill="#112F58"/>
    <rect x="966" y="262" width="132" height="36" rx="18" fill="#FFFFFF" opacity="0.98"/>
    <path d="M994 280H1068" stroke="#153D6B" stroke-width="4" stroke-linecap="round"/>
    <circle cx="1082" cy="280" r="6" fill="#46E3B9"/>

    <rect x="444" y="356" width="272" height="272" rx="28" fill="#EEF4FB"/>
    <rect x="470" y="384" width="220" height="88" rx="20" fill="#FFFFFF"/>
    <rect x="490" y="404" width="96" height="12" rx="6" fill="#132F57"/>
    <rect x="490" y="428" width="128" height="10" rx="5" fill="#7C8CA6"/>
    <rect x="620" y="396" width="44" height="44" rx="14" fill="#E7F6F1"/>
    <path d="M633 418H651M642 409V427" stroke="#149F82" stroke-width="4" stroke-linecap="round"/>
    <rect x="470" y="492" width="220" height="74" rx="18" fill="#FFFFFF"/>
    <circle cx="500" cy="529" r="14" fill="#EBF4FF"/>
    <path d="M492 529L498 535L510 522" stroke="#4B6FDC" stroke-width="4" stroke-linecap="round" stroke-linejoin="round"/>
    <rect x="526" y="522" width="122" height="12" rx="6" fill="#132F57"/>
    <rect x="526" y="544" width="86" height="10" rx="5" fill="#7C8CA6"/>
    <rect x="470" y="584" width="148" height="22" rx="11" fill="#EAF2FC"/>
    <circle cx="490" cy="595" r="6" fill="#149F82"/>
    <rect x="504" y="590" width="76" height="10" rx="5" fill="#132F57"/>

    <rect x="748" y="356" width="348" height="272" rx="28" fill="#EEF4FB"/>
    <rect x="778" y="386" width="288" height="56" rx="18" fill="#FFFFFF"/>
    <circle cx="806" cy="414" r="12" fill="#E7F6F1"/>
    <rect x="830" y="406" width="106" height="12" rx="6" fill="#132F57"/>
    <rect x="946" y="400" width="64" height="30" rx="15" fill="url(#dw-teal)"/>
    <rect x="778" y="462" width="288" height="136" rx="22" fill="#FFFFFF"/>
    <rect x="804" y="492" width="104" height="30" rx="15" fill="#EEF4FB"/>
    <circle cx="824" cy="507" r="7" fill="#149F82"/>
    <rect x="838" y="502" width="50" height="10" rx="5" fill="#132F57"/>
    <rect x="924" y="492" width="78" height="30" rx="15" fill="#EEF4FB"/>
    <circle cx="944" cy="507" r="7" fill="#4B6FDC"/>
    <rect x="958" y="502" width="28" height="10" rx="5" fill="#132F57"/>
    <rect x="804" y="542" width="172" height="12" rx="6" fill="#132F57"/>
    <rect x="804" y="566" width="126" height="10" rx="5" fill="#7C8CA6"/>
  </g>

  <g filter="url(#dw-shadow)">
    <rect x="186" y="526" width="270" height="174" rx="28" fill="#FFFFFF" opacity="0.98"/>
    <rect x="214" y="554" width="96" height="32" rx="16" fill="#EEF4FB"/>
    <circle cx="234" cy="570" r="7" fill="#149F82"/>
    <rect x="248" y="565" width="48" height="10" rx="5" fill="#132F57"/>
    <rect x="214" y="610" width="220" height="14" rx="7" fill="#132F57"/>
    <rect x="214" y="636" width="182" height="10" rx="5" fill="#7C8CA6"/>
    <rect x="214" y="658" width="128" height="10" rx="5" fill="#7C8CA6" opacity="0.72"/>
  </g>

  <g filter="url(#dw-shadow)">
    <rect x="1140" y="648" width="256" height="176" rx="28" fill="#FFFFFF"/>
    <rect x="1168" y="678" width="118" height="12" rx="6" fill="#132F57"/>
    <rect x="1168" y="702" width="172" height="10" rx="5" fill="#7C8CA6"/>
    <rect x="1168" y="738" width="78" height="36" rx="18" fill="url(#dw-pink)"/>
    <rect x="1262" y="738" width="100" height="36" rx="18" fill="url(#dw-gold)"/>
    <rect x="1168" y="790" width="132" height="12" rx="6" fill="#132F57"/>
  </g>
</svg>
