<svg width="1600" height="980" viewBox="0 0 1600 980" fill="none" xmlns="http://www.w3.org/2000/svg">
  <defs>
    <linearGradient id="bp-card" x1="360" y1="220" x2="1160" y2="760" gradientUnits="userSpaceOnUse">
      <stop offset="0%" stop-color="#FFFFFF"/>
      <stop offset="100%" stop-color="#F4F8FD"/>
    </linearGradient>
    <linearGradient id="bp-navy" x1="0" y1="0" x2="1" y2="1">
      <stop offset="0%" stop-color="#0C1829"/>
      <stop offset="100%" stop-color="#213A61"/>
    </linearGradient>
    <linearGradient id="bp-teal" x1="0" y1="0" x2="1" y2="1">
      <stop offset="0%" stop-color="#49E2B7"/>
      <stop offset="100%" stop-color="#189E83"/>
    </linearGradient>
    <linearGradient id="bp-blue" x1="0" y1="0" x2="1" y2="1">
      <stop offset="0%" stop-color="#80AEFF"/>
      <stop offset="100%" stop-color="#4C70DD"/>
    </linearGradient>
    <linearGradient id="bp-pink" x1="0" y1="0" x2="1" y2="1">
      <stop offset="0%" stop-color="#FFB4C9"/>
      <stop offset="100%" stop-color="#E06187"/>
    </linearGradient>
    <linearGradient id="bp-gold" x1="0" y1="0" x2="1" y2="1">
      <stop offset="0%" stop-color="#FFE289"/>
      <stop offset="100%" stop-color="#F0AB3E"/>
    </linearGradient>
    <filter id="bp-shadow" x="126" y="100" width="1348" height="824" filterUnits="userSpaceOnUse" color-interpolation-filters="sRGB">
      <feFlood flood-opacity="0" result="BackgroundImageFix"/>
      <feColorMatrix in="SourceAlpha" type="matrix" values="0 0 0 0 0 0 0 0 0 0 0 0 0 0 0 0 0 0 127 0" result="hardAlpha"/>
      <feOffset dy="24"/>
      <feGaussianBlur stdDeviation="36"/>
      <feColorMatrix type="matrix" values="0 0 0 0 0.0470588 0 0 0 0 0.0941176 0 0 0 0 0.160784 0 0 0 0.16 0"/>
      <feBlend mode="normal" in2="BackgroundImageFix" result="effect1_dropShadow_0_1"/>
      <feBlend mode="normal" in="SourceGraphic" in2="effect1_dropShadow_0_1" result="shape"/>
    </filter>
    <filter id="bp-soft" x="0" y="0" width="1600" height="980" filterUnits="userSpaceOnUse" color-interpolation-filters="sRGB">
      <feGaussianBlur stdDeviation="64"/>
    </filter>
  </defs>

  <g opacity="0.56" filter="url(#bp-soft)">
    <circle cx="278" cy="212" r="118" fill="#86E8CD"/>
    <circle cx="1288" cy="240" r="128" fill="#DBE6FF"/>
    <circle cx="1142" cy="800" r="140" fill="#F8D7E2"/>
  </g>

  <g filter="url(#bp-shadow)">
    <rect x="368" y="234" width="854" height="492" rx="36" fill="url(#bp-card)" stroke="#DCE5F1" stroke-width="3"/>
    <rect x="368" y="234" width="854" height="76" rx="36" fill="url(#bp-navy)"/>
    <circle cx="420" cy="272" r="7" fill="#FF7D73"/>
    <circle cx="446" cy="272" r="7" fill="#FFC857"/>
    <circle cx="472" cy="272" r="7" fill="#49E2B7"/>
    <rect x="520" y="258" width="160" height="26" rx="13" fill="#112F58"/>

    <rect x="410" y="342" width="250" height="350" rx="28" fill="#EFF4FB"/>
    <rect x="438" y="374" width="194" height="104" rx="22" fill="#FFFFFF"/>
    <rect x="458" y="398" width="88" height="66" rx="18" fill="#E8F7F2"/>
    <path d="M474 416H526M474 431H526M474 446H510" stroke="#169E83" stroke-width="6" stroke-linecap="round"/>
    <rect x="562" y="402" width="46" height="12" rx="6" fill="#132F57"/>
    <rect x="562" y="426" width="38" height="10" rx="5" fill="#7C8CA6"/>

    <rect x="438" y="500" width="194" height="72" rx="18" fill="#FFFFFF"/>
    <circle cx="468" cy="536" r="13" fill="#EAF3FF"/>
    <path d="M460 536L466 542L478 529" stroke="#4C70DD" stroke-width="4" stroke-linecap="round" stroke-linejoin="round"/>
    <rect x="492" y="528" width="88" height="11" rx="5.5" fill="#132F57"/>
    <rect x="492" y="548" width="60" height="9" rx="4.5" fill="#7C8CA6"/>

    <rect x="438" y="590" width="194" height="72" rx="18" fill="#FFFFFF"/>
    <circle cx="468" cy="626" r="13" fill="#FDF1D3"/>
    <path d="M462 626H474" stroke="#F0AB3E" stroke-width="4" stroke-linecap="round"/>
    <rect x="492" y="618" width="94" height="11" rx="5.5" fill="#132F57"/>
    <rect x="492" y="638" width="64" height="9" rx="4.5" fill="#7C8CA6"/>

    <rect x="694" y="342" width="486" height="198" rx="28" fill="#F0F5FC"/>
    <rect x="724" y="372" width="144" height="126" rx="22" fill="#FFFFFF"/>
    <rect x="752" y="404" width="88" height="54" rx="16" fill="url(#bp-blue)"/>
    <path d="M770 422H822M770 438H810" stroke="#FFFFFF" stroke-width="6" stroke-linecap="round"/>
    <rect x="892" y="372" width="120" height="126" rx="22" fill="#FFFFFF"/>
    <rect x="918" y="400" width="68" height="18" rx="9" fill="#EEF4FB"/>
    <rect x="918" y="430" width="68" height="18" rx="9" fill="#EEF4FB"/>
    <rect x="918" y="460" width="68" height="18" rx="9" fill="#EEF4FB"/>
    <circle cx="932" cy="409" r="6" fill="#49E2B7"/>
    <circle cx="932" cy="439" r="6" fill="#4C70DD"/>
    <circle cx="932" cy="469" r="6" fill="#E06187"/>
    <rect x="1038" y="372" width="114" height="126" rx="22" fill="#FFFFFF"/>
    <rect x="1060" y="402" width="70" height="12" rx="6" fill="#132F57"/>
    <rect x="1060" y="426" width="54" height="10" rx="5" fill="#7C8CA6"/>
    <rect x="1060" y="454" width="72" height="26" rx="13" fill="url(#bp-teal)"/>

    <rect x="694" y="566" width="486" height="126" rx="28" fill="#FFFFFF"/>
    <rect x="726" y="596" width="126" height="66" rx="18" fill="#0C1829"/>
    <path d="M754 615H826" stroke="#FFFFFF" stroke-width="6" stroke-linecap="round"/>
    <path d="M754 636H806" stroke="#8EA5C5" stroke-width="6" stroke-linecap="round"/>
    <rect x="874" y="596" width="120" height="66" rx="18" fill="#F3F7FD"/>
    <rect x="900" y="616" width="68" height="26" rx="13" fill="url(#bp-pink)"/>
    <rect x="1018" y="596" width="140" height="66" rx="18" fill="#F3F7FD"/>
    <rect x="1046" y="616" width="84" height="26" rx="13" fill="url(#bp-gold)"/>
  </g>

  <g filter="url(#bp-shadow)">
    <rect x="190" y="534" width="280" height="180" rx="28" fill="#FFFFFF" opacity="0.98"/>
    <rect x="218" y="564" width="98" height="32" rx="16" fill="#EEF4FB"/>
    <circle cx="238" cy="580" r="7" fill="#49E2B7"/>
    <rect x="252" y="575" width="46" height="10" rx="5" fill="#132F57"/>
    <rect x="218" y="618" width="226" height="14" rx="7" fill="#132F57"/>
    <rect x="218" y="644" width="184" height="10" rx="5" fill="#7C8CA6"/>
    <rect x="218" y="666" width="130" height="10" rx="5" fill="#7C8CA6" opacity="0.7"/>
  </g>

  <g filter="url(#bp-shadow)">
    <rect x="1134" y="666" width="262" height="178" rx="28" fill="#FFFFFF"/>
    <rect x="1162" y="696" width="118" height="12" rx="6" fill="#132F57"/>
    <rect x="1162" y="720" width="170" height="10" rx="5" fill="#7C8CA6"/>
    <rect x="1162" y="758" width="98" height="36" rx="18" fill="url(#bp-teal)"/>
    <rect x="1274" y="758" width="92" height="36" rx="18" fill="url(#bp-blue)"/>
    <rect x="1162" y="810" width="144" height="12" rx="6" fill="#132F57"/>
  </g>
</svg>
